<svg width="37" height="39" viewBox="0 0 37 39" fill="none" xmlns="http://www.w3.org/2000/svg">
<path d="M24.75 19.875C24.75 21.1679 24.2364 22.4079 23.3221 23.3221C22.4079 24.2364 21.1679 24.75 19.875 24.75C18.5821 24.75 17.3421 24.2364 16.4279 23.3221C15.5136 22.4079 15 21.1679 15 19.875C15 18.5821 15.5136 17.3421 16.4279 16.4279C17.3421 15.5136 18.5821 15 19.875 15C21.1679 15 22.4079 15.5136 23.3221 16.4279C24.2364 17.3421 24.75 18.5821 24.75 19.875Z" fill="#006ADC"/>
<path d="M19.5117 35.5875C25.5567 35.5875 30.8217 32.253 33.5712 27.3195L36.6912 28.704C34.6398 32.5355 31.3672 35.572 27.393 37.3312C23.4189 39.0903 18.9709 39.4715 14.7554 38.414C10.5399 37.3565 6.79848 34.9211 4.12519 31.4944C1.45191 28.0677 0 23.8461 0 19.5C0 15.1539 1.45191 10.9323 4.12519 7.50562C6.79848 4.07892 10.5399 1.64349 14.7554 0.586024C18.9709 -0.471439 23.4189 -0.0903195 27.393 1.66887C31.3672 3.42806 34.6398 6.46448 36.6912 10.296L33.5712 11.7C32.196 9.21942 30.1895 7.14647 27.755 5.69129C25.3204 4.23611 22.5445 3.45041 19.7085 3.41385C16.8724 3.37729 14.0771 4.09115 11.6059 5.48309C9.1347 6.87502 7.0754 8.89555 5.63674 11.3399C4.19809 13.7842 3.43122 16.5654 3.41388 19.4016C3.39653 22.2378 4.12931 25.0282 5.53796 27.4899C6.94661 29.9517 8.98104 31.9972 11.435 33.4193C13.8891 34.8414 16.6754 35.5894 19.5117 35.5875Z" fill="white"/>
<path fill-rule="evenodd" clip-rule="evenodd" d="M19.3125 31.875C22.5448 31.875 25.6448 30.591 27.9304 28.3054C30.216 26.0198 31.5 22.9198 31.5 19.6875C31.5 16.4552 30.216 13.3552 27.9304 11.0696C25.6448 8.78404 22.5448 7.5 19.3125 7.5C16.0802 7.5 12.9802 8.78404 10.6946 11.0696C8.40904 13.3552 7.125 16.4552 7.125 19.6875C7.125 22.9198 8.40904 26.0198 10.6946 28.3054C12.9802 30.591 16.0802 31.875 19.3125 31.875ZM19.3125 28.4625C20.4649 28.4625 21.6059 28.2355 22.6705 27.7945C23.7352 27.3536 24.7025 26.7072 25.5174 25.8924C26.3322 25.0775 26.9786 24.1102 27.4195 23.0455C27.8605 21.9809 28.0875 20.8398 28.0875 19.6875C28.0875 18.5351 27.8605 17.3941 27.4195 16.3295C26.9786 15.2648 26.3322 14.2975 25.5174 13.4826C24.7025 12.6678 23.7352 12.0214 22.6705 11.5805C21.6059 11.1395 20.4649 10.9125 19.3125 10.9125C16.9852 10.9125 14.7533 11.837 13.1076 13.4826C11.462 15.1283 10.5375 17.3602 10.5375 19.6875C10.5375 22.0148 11.462 24.2467 13.1076 25.8924C14.7533 27.538 16.9852 28.4625 19.3125 28.4625Z" fill="white"/>
</svg>
